<svg fill="#000000" xmlns="http://www.w3.org/2000/svg"  viewBox="0 0 16 16" width="32px" height="32px"><path d="M6 7.75H3.25v1h1.333c-.11.23-.268.43-.46.592l.001.001H4.122C3.818 9.597 3.427 9.749 3 9.749c-.742 0-1.375-.461-1.629-1.112C1.293 8.439 1.25 8.224 1.25 7.999c0-.363.11-.699.299-.978l.033-.043c.317-.442.833-.728 1.418-.728.467 0 .893.182 1.205.483l.835-.933C4.505 5.305 3.787 5 3 5 1.965 5 1.052 5.525.513 6.323.189 6.802 0 7.379 0 8c0 .493.118.957.329 1.367C.826 10.336 1.835 11 2.999 11c.799 0 1.526-.312 2.063-.822l-.001-.001c.577-.544.937-1.32.937-2.177L6 7.75 6 7.75zM14.051 9.807l-1.177-3.093h.715l.804 2.354.986-2.354H16c0 0-1.925 4.542-1.941 4.58l-.621.016C13.449 11.285 14.051 9.807 14.051 9.807zM12.038 8.612c0 .383-.337.656-.783.656-.351 0-.574-.163-.574-.412 0-.257.215-.406.626-.43l.734-.054L12.038 8.612zM11.429 6.715c-.699 0-1.216.386-1.236.916h.594c.049-.252.291-.417.623-.417.402 0 .63.181.63.515v.23l-.823.042c-.764.044-1.178.347-1.178.871 0 .53.427.882 1.039.882.414 0 .797-.202.971-.522h.013l.002.522h.607V7.686C12.672 7.095 12.182 6.715 11.429 6.715zM8.418 7.727H7.607v-1.62h.811c.578 0 .949.273.949.811S8.999 7.727 8.418 7.727zM8.612 5.5H7v4.254h.607V8.336h.982c.843 0 1.449-.588 1.449-1.418S9.444 5.5 8.612 5.5z"/></svg>